<?xml version="1.0" encoding="utf-8"?>
<!-- Generator: Adobe Illustrator 26.0.2, SVG Export Plug-In . SVG Version: 6.00 Build 0)  -->
<svg version="1.1" id="Слой_1" xmlns="http://www.w3.org/2000/svg" xmlns:xlink="http://www.w3.org/1999/xlink" x="0px" y="0px"
	 viewBox="0 0 64 114" style="enable-background:new 0 0 64 114;" xml:space="preserve">
<style type="text/css">
	.st0{fill:#12A9EB;}
</style>
<path id="bottle" class="st0" d="M46,23H18V3h28V23z M20,21h24V5H20V21z M52,27.5c0,2.7-1.8,5.5-4.1,5.5H16.1
	c-2.3,0-4.1-2.8-4.1-5.5v-2.1c0-2.7,1.8-4.4,4.1-4.4h31.8c2.3,0,4.1,1.7,4.1,4.4V27.5z M50,25.4c0-1.4-1-2.4-2.1-2.4H16.1
	C15,23,14,24,14,25.4v2.1c0,1.4,1,3.5,2.1,3.5h31.8c1.2,0,2.1-2.1,2.1-3.5V25.4z M50,111H13.2C6.8,111,2,105.9,2,99.4V53.7
	C2,47.3,12.4,31,19.2,31h24.9C50.8,31,62,47.4,62,53.7v45.7C62,105.9,56.5,111,50,111z M19.2,33C14.1,33,4,47.9,4,53.7v45.7
	c0,5.4,3.9,9.6,9.2,9.6H50c5.4,0,10-4.2,10-9.6V53.7C60,47.8,49.2,33,44.1,33H19.2z"/>
</svg>
